HIERARCHY
ROOT ui
{
	 OFFSET 0 0 0
	 CHANNELS 3 XPosition YPosition Z Position
	 EndSite
	 {
	 OFFSET 0 -1 0
	 }
}
ROOT li
{
	 OFFSET 0 0 0
	 CHANNELS 3 XPosition YPosition Z Position
	 EndSite
	 {
	 OFFSET 0 -1 0
	 }
}
ROOT ul
{
	 OFFSET 0 0 0
	 CHANNELS 3 XPosition YPosition Z Position
	 EndSite
	 {
	 OFFSET 0 -1 0
	 }
}
ROOT ll
{
	 OFFSET 0 0 0
	 CHANNELS 3 XPosition YPosition Z Position
	 EndSite
	 {
	 OFFSET 0 -1 0
	 }
}
ROOT tt
{
	 OFFSET 0 0 0
	 CHANNELS 3 XPosition YPosition Z Position
	 EndSite
	 {
	 OFFSET 0 -1 0
	 }
}
ROOT tb
{
	 OFFSET 0 0 0
	 CHANNELS 3 XPosition YPosition Z Position
	 EndSite
	 {
	 OFFSET 0 -1 0
	 }
}
ROOT td
{
	 OFFSET 0 0 0
	 CHANNELS 3 XPosition YPosition Z Position
	 EndSite
	 {
	 OFFSET 0 -1 0
	 }
}
ROOT v
{
	 OFFSET 0 0 0
	 CHANNELS 3 XPosition YPosition Z Position
	 EndSite
	 {
	 OFFSET 0 -1 0
	 }
}
ROOT bn
{
	 OFFSET 0 0 0
	 CHANNELS 3 XPosition YPosition Z Position
	 EndSite
	 {
	 OFFSET 0 -1 0
	 }
}
MOTION
Frames: 32
Frame Time: 0.002
-0.006150485992431641	-2.7932999655604364E-5	0		0.45461279296875	-2.431574951171875	0		-1.1248125	-0.09966423034667969	0		-0.8101500854492187	-2.53376513671875	0		1.4502230224609376	-0.6795758056640625	0		3.101453369140625	0.07367811584472657	0		4.48916748046875	0.1299548797607422	0		5.62323779296875	0.07718524169921875	0		-0.11289830017089844	5.9461455078125	0		
0.06745900726318359	-0.0028123040199279784	0		0.49431558227539063	-2.43155126953125	0		-1.1302266845703124	-0.10260235595703125	0		-0.8222662353515625	-2.52553662109375	0		1.4089454345703125	-0.676627685546875	0		3.1204306640625	0.08723320007324219	0		4.4878193359375	0.13000634765625	0		5.621890625	0.07725382232666016	0		-0.11628641510009766	5.948173828125	0		
-0.012899968147277832	-0.002977663993835449	0		0.44115151977539063	-2.42534814453125	0		-1.058602783203125	-0.10536781311035157	0		-0.7917349243164062	-2.53332958984375	0		1.4444940185546875	-0.682504638671875	0		3.108933349609375	0.08049059295654297	0		4.48167333984375	0.13816285705566406	0		5.61220458984375	0.06250490188598633	0		-0.11868817901611328	5.9491669921875	0		
0.05767629623413086	-0.009714941024780273	0		0.4637792663574219	-2.4309482421875	0		-1.1328433837890626	-0.1027091064453125	0		-0.8268539428710937	-2.527586181640625	0		1.40327685546875	-0.679583740234375	0		3.09769580078125	0.08273130798339844	0		4.4851953125	0.13007478332519531	0		5.60610693359375	0.07066566467285157	0		-0.12006800079345703	5.9491220703125	0		
-0.011325703620910645	-1.7601600289344788E-4	0		0.4407799072265625	-2.42348486328125	0		-1.1299814453125	-0.09988206481933594	0		-0.813120849609375	-2.532010986328125	0		1.416839111328125	-0.68997119140625	0		3.101083984375	0.06560836029052734	0		4.4897939453125	0.12194812774658204	0		5.62382080078125	0.067249755859375	0		-0.10421286010742188	5.95565869140625	0		
0.0655905532836914	-8.783599734306335E-5	0		0.44487353515625	-2.416674072265625	0		-1.1310889892578124	-0.09997759246826173	0		-0.8090724487304688	-2.52722021484375	0		1.4460855712890626	-0.675734619140625	0		3.107771240234375	0.09940802764892578	0		4.49115234375	0.14189193725585938	0		5.62113427734375	0.08530671691894531	0		-0.10637214660644531	5.9576025390625	0		
-0.013427190780639649	-3.4767299890518187E-4	0		0.43875799560546874	-2.4236416015625	0		-1.0700732421875	-0.10054753875732422	0		-0.7910283203125	-2.5277744140625	0		1.443010986328125	-0.6797568969726563	0		3.068223876953125	0.07626455688476562	0		4.488064453125	0.13791987609863282	0		5.60702685546875	0.0806120147705078	0		-0.12366971588134766	5.94888525390625	0		
0.0606637077331543	-0.0032197279930114746	0		0.463878662109375	-2.42635546875	0		-1.142893310546875	-0.09798584747314452	0		-0.835534423828125	-2.513868896484375	0		1.4421572265625	-0.6798442993164062	0		3.097654541015625	0.08849578094482421	0		4.4762001953125	0.13814065551757812	0		5.61092431640625	0.07047821044921875	0		-0.13886312866210937	5.939103515625	0		
-0.015025538444519043	-5.865730047225952E-4	0		0.4611143798828125	-2.429427490234375	0		-1.0716683349609375	-0.10082073974609375	0		-0.7925446166992187	-2.52803857421875	0		1.4383651123046874	-0.6828772583007813	0		3.098614013671875	0.07537483215332032	0		4.4713251953125	0.13218070983886718	0		5.597005859375	0.06274823760986328	0		-0.14066822814941407	5.9399970703125	0		
0.059326831817626956	-0.0034878649711608885	0		0.40975030517578126	-2.420369384765625	0		-1.174312744140625	-0.1015875244140625	0		-0.8598558349609375	-2.516625244140625	0		1.4039925537109375	-0.6732027587890625	0		3.08566943359375	0.10357759857177734	0		4.479669921875	0.1298972625732422	0		5.60477392578125	0.07850083160400391	0		-0.12711032104492187	5.95052099609375	0		
-0.013017271995544434	0.0030423169136047363	0		0.44139059448242185	-2.417270751953125	0		-1.13475634765625	-0.10069966125488282	0		-0.8320958251953126	-2.508453369140625	0		1.4035216064453124	-0.6733381958007812	0		3.09148193359375	0.07331168365478516	0		4.47918701171875	0.12980812072753906	0		5.6042919921875	0.07842863464355469	0		-0.12768099212646483	5.9503623046875	0		
0.008512060165405273	-0.0016407829523086548	0		0.43696218872070314	-2.42133837890625	0		-1.1450762939453125	-0.09865126800537109	0		-0.8344766845703125	-2.510586669921875	0		1.440009765625	-0.6803514404296875	0		3.09062548828125	0.09520513916015624	0		4.4740029296875	0.13781922912597655	0		5.603966796875	0.08034061431884766	0		-0.12813824462890624	5.95019189453125	0		
-0.016756607055664063	-0.0012348099946975707	0		0.4615965881347656	-2.42709521484375	0		-1.0733935546875	-0.10153144836425781	0		-0.8378099365234375	-2.514706298828125	0		1.4397437744140624	-0.6805106201171875	0		3.100994384765625	0.07981568908691407	0		4.4737255859375	0.13770245361328126	0		5.59369287109375	0.08047367095947265	0		-0.1294732208251953	5.95103369140625	0		
-0.022832475662231445	0.0037159459590911867	0		0.42570187377929686	-2.41543798828125	0		-1.1455435791015625	-0.09904993438720704	0		-0.8379706420898437	-2.51490576171875	0		1.4395584716796874	-0.6806792602539062	0		3.0789921875	0.0881817855834961	0		4.47352880859375	0.13757456970214843	0		5.59507568359375	0.0623189811706543	0		-0.1297476806640625	5.95084423828125	0		
0.007916912078857422	-0.0022027130126953125	0		0.43851083374023436	-2.419930419921875	0		-1.1397860107421875	-0.10439862823486327	0		-0.8221144409179687	-2.517485107421875	0		1.3826212158203126	-0.6725249633789062	0		3.105507568359375	0.07239945983886718	0		4.4782138671875	0.12932267761230468	0		5.6033212890625	0.07800489044189453	0		-0.12802046203613282	5.9476015625	0		
-0.014048476219177247	0.002109982967376709	0		0.442568359375	-2.4162197265625	0		-1.1416387939453125	-0.0955688705444336	0		-0.8180557250976562	-2.5137900390625	0		1.4445478515625	-0.6741569213867188	0		3.09721533203125	0.10543891143798828	0		4.4822861328125	0.13508277893066406	0		5.61222998046875	0.07666403198242187	0		-0.1148823013305664	5.9590927734375	0		
0.0029584410190582277	0.002508173942565918	0		0.454628662109375	-2.41469970703125	0		-1.07378466796875	-0.10237349700927735	0		-0.832940185546875	-2.509655029296875	0		1.4025321044921875	-0.6743629760742188	0		3.064487060546875	0.075027099609375	0		4.48431884765625	0.1368843231201172	0		5.59905712890625	0.06983174896240234	0		-0.13017083740234375	5.95023974609375	0		
-0.017117448806762695	-0.002230694055557251	0		0.43650927734375	-2.4224794921875	0		-1.0737481689453126	-0.10259266662597656	0		-0.8000023803710937	-2.515640380859375	0		1.4394249267578125	-0.6814164428710937	0		3.0788212890625	0.08752395629882813	0		4.48435302734375	0.13672744750976562	0		5.598138671875	0.07171016693115234	0		-0.144455078125	5.93936083984375	0		
0.00795385217666626	-0.0030230870246887205	0		0.4366127014160156	-2.422683837890625	0		-1.1456260986328124	-0.10013308715820313	0		-0.8368645629882813	-2.51399462890625	0		1.3995677490234375	-0.678677490234375	0		3.084733642578125	0.08020919036865234	0		4.4734326171875	0.1368221435546875	0		5.593404296875	0.07967432403564453	0		-0.14539218139648438	5.94117333984375	0		
-0.018734493255615235	0.0053950481414794926	0		0.4149231262207031	-2.415377685546875	0		-1.1355567626953125	-0.10258638000488281	0		-0.8326302490234375	-2.510306640625	0		1.402784423828125	-0.6749444580078126	0		3.08436376953125	0.10204694366455078	0		4.47768798828125	0.14256109619140625	0		5.5992861328125	0.0693818588256836	0		-0.13012628173828125	5.94960986328125	0		
0.061258560180664064	-0.0026774849891662597	0		0.4410226135253906	-2.419188232421875	0		-1.1412596435546876	-0.09666719818115234	0		-0.8663271484375	-2.504731689453125	0		1.4029453125	-0.6751407470703125	0		3.08500439453125	0.0798485107421875	0		4.47784130859375	0.1423925323486328	0		5.60362548828125	0.0771279525756836	0		-0.13100149536132813	5.9504228515625	0		
-0.013487330436706543	8.633289933204651E-4	0		0.4314425048828125	-2.4101611328125	0		-1.145163818359375	-0.1007895736694336	0		-0.8322447509765625	-2.510737060546875	0		1.4399881591796875	-0.6821967163085938	0		3.084703857421875	0.10168467712402343	0		4.47388818359375	0.13631793212890625	0		5.593861328125	0.07920046997070312	0		-0.13086439514160156	5.95021484375	0		
0.0037422258853912352	0.001262545943260193	0		0.42962643432617187	-2.412314697265625	0		-1.1449521484375	-0.10100299072265626	0		-0.83406005859375	-2.51290087890625	0		1.4402044677734376	-0.6823896484375	0		3.07956591796875	0.08662533569335938	0		4.4692861328125	0.14426335144042968	0		5.59407177734375	0.07904045104980469	0		-0.13165379333496094	5.9520322265625	0		
-0.01614500617980957	-0.0034708640575408936	0		0.437610107421875	-2.423695556640625	0		-1.1447275390625	-0.10121224212646485	0		-0.83586328125	-2.515060546875	0		1.4004908447265625	-0.6796483154296875	0		3.074976806640625	0.09456228637695313	0		4.47432080078125	0.13598225402832032	0		5.600060546875	0.06874509429931641	0		-0.13052183532714845	5.94980810546875	0		
0.00907452392578125	-0.004248792171478271	0		0.4160230407714844	-2.416377685546875	0		-1.1715164794921875	-0.10178742980957031	0		-0.8895108642578125	-2.51000634765625	0		1.403814453125	-0.6759047241210937	0		3.07566650390625	0.07137197875976563	0		4.47250048828125	0.13386631774902344	0		5.60447119140625	0.07649498748779297	0		-0.12936259460449218	5.94858837890625	0		
-0.006469014167785644	0.00593165397644043	0		0.44529837036132813	-2.415239501953125	0		-1.1343297119140625	-0.10384608459472656	0		-0.8261509399414062	-2.505669921875	0		1.40610791015625	-0.67313134765625	0		3.0986474609375	0.10368367767333984	0		4.4830419921875	0.1474724884033203	0		5.60885205078125	0.08325080871582032	0		-0.11493361663818359	5.9590693359375	0		
0.012566198348999023	-0.0016897300481796265	0		0.4326153259277344	-2.4111162109375	0		-1.1399844970703126	-0.09789724731445312	0		-0.8310681762695312	-2.511739013671875	0		1.437330810546875	-0.6730241088867187	0		3.064463623046875	0.0873202133178711	0		4.47910546875	0.1414177703857422	0		5.5907802734375	0.07153144073486328	0		-0.13000111389160157	5.94923876953125	0		
-0.021200117111206056	9.294390082359314E-4	0		0.45668731689453124	-2.41684130859375	0		-1.0719405517578124	-0.1046569366455078	0		-0.832918701171875	-2.513868896484375	0		1.4412796630859375	-0.6832757568359376	0		3.087657958984375	0.08763501739501953	0		4.47033154296875	0.14348655700683594	0		5.59511962890625	0.07830422973632813	0		-0.144093505859375	5.93939501953125	0		
-0.021056041717529297	7.692840099334717E-4	0		0.41478958129882815	-2.419020751953125	0		-1.1437530517578125	-0.10215022277832031	0		-0.83275732421875	-2.51403466796875	0		1.441428466796875	-0.6834258422851562	0		3.0807568359375	0.08565956115722656	0		4.475287109375	0.1352431640625	0		5.59684375	0.060141036987304684	0		-0.14399024963378906	5.93923388671875	0		
0.00992348289489746	-0.005097554206848144	0		0.4428794250488281	-2.42081591796875	0		-1.1395562744140626	-0.09839944458007813	0		-0.819779052734375	-2.52048828125	0		1.404686767578125	-0.6767047729492187	0		3.0820693359375	0.09450752258300782	0		4.48434130859375	0.13291761779785155	0		5.60113232421875	0.06793667602539062	0		-0.11544593048095703	5.95942919921875	0		
0.008170505523681641	0.002813698053359985	0		0.4180794677734375	-2.4153662109375	0		-1.1364261474609374	-0.09561091613769532	0		-0.8284664306640624	-2.510420654296875	0		1.4436949462890625	-0.6797341918945312	0		3.086756103515625	0.0782835922241211	0		4.4837265625	0.14683462524414062	0		5.605423828125	0.07774620056152344	0		-0.12967807006835938	5.94862353515625	0		
0.00818374252319336	0.002696584939956665	0		0.4591216125488281	-2.41543359375	0		-1.143572998046875	-0.1025714340209961	0		-0.830481689453125	-2.51249658203125	0		1.4047698974609375	-0.6769357299804688	0		3.0862802734375	0.10020511627197265	0		4.4796005859375	0.1408430938720703	0		5.60120556640625	0.06776353454589844	0		-0.1297060546875	5.94850537109375	0		
